<svg width="84" height="84" viewBox="0 0 84 84" fill="none" xmlns="http://www.w3.org/2000/svg">
<path d="M62.5742 18.6667L58.8254 60.6618L41.9748 65.3333L25.1706 60.6684L21.4258 18.6667H62.5742Z" fill="#264DE4"/>
<path d="M55.6161 57.9877L58.8196 22.1009H42V61.7626L55.6161 57.9877Z" fill="#2965F1"/>
<path d="M30.0106 37.6788L30.4723 42.8301H42V37.6788H30.0106Z" fill="#EBEBEB"/>
<path d="M42 27.2523H41.9822H29.0829L29.5512 32.4037H42V27.2523Z" fill="#EBEBEB"/>
<path d="M42 56.4168V51.0572L41.9774 51.0632L36.2403 49.5141L35.8736 45.4057H33.0858H30.7025L31.4242 53.494L41.9763 56.4234L42 56.4168Z" fill="#EBEBEB"/>
<path d="M48.3255 42.83L47.7276 49.5109L41.9822 51.0616V56.4209L52.5427 53.4941L52.6202 52.6238L53.8307 39.062L53.9564 37.6787L54.8864 27.2523H41.9822V32.4037H49.241L48.7722 37.6787H41.9822V42.83H48.3255Z" fill="white"/>
</svg>
