<svg width="85" height="84" viewBox="0 0 85 84" fill="none" xmlns="http://www.w3.org/2000/svg">
<path d="M65.6983 18.6667H18.771V65.3333H65.6983V18.6667Z" fill="#F7DF1E"/>
<path d="M50.2942 55.1252C51.2395 56.66 52.4693 57.7882 54.6443 57.7882C56.4715 57.7882 57.6387 56.88 57.6387 55.6252C57.6387 54.1215 56.4395 53.5889 54.4283 52.7141L53.3259 52.2437C50.1438 50.8956 48.0298 49.2067 48.0298 45.6363C48.0298 42.3474 50.5497 39.8437 54.4879 39.8437C57.2916 39.8437 59.3073 40.8141 60.7598 43.3548L57.3259 45.5474C56.5698 44.1993 55.7542 43.6682 54.4879 43.6682C53.1963 43.6682 52.3776 44.483 52.3776 45.5474C52.3776 46.863 53.197 47.3956 55.089 48.2104L56.1914 48.68C59.9382 50.2778 62.0536 51.9067 62.0536 55.5689C62.0536 59.5171 58.9348 61.68 54.7464 61.68C50.651 61.68 48.0052 59.7393 46.7106 57.1956L50.2942 55.1252ZM34.7166 55.5052C35.4093 56.7274 36.0395 57.7608 37.5546 57.7608C39.0033 57.7608 39.9173 57.1971 39.9173 55.0052V40.0941H44.327V55.0645C44.327 59.6052 41.6499 61.6719 37.7423 61.6719C34.2115 61.6719 32.1668 59.8548 31.127 57.6663L34.7166 55.5052Z" fill="black"/>
</svg>
