<svg width="84" height="84" viewBox="0 0 84 84" fill="none" xmlns="http://www.w3.org/2000/svg">
<path d="M29.678 35.2984H38.4798V35.9947H30.4849V41.2346H38.003V41.9308H30.4849V47.6838H38.5715V48.38H29.678V35.2984ZM39.2683 35.2984H40.2035L44.3476 41.0514L48.5835 35.2984L54.3449 27.9909L44.8794 41.656L49.757 48.38H48.7852L44.3476 42.2606L39.8917 48.38H38.9382L43.8525 41.656L39.2683 35.2984ZM50.1054 35.9947V35.2984H60.1358V35.9947H55.5149V48.38H54.708V35.9947H50.1054Z" fill="black"/>
<path d="M18.6667 35.2984H19.6752L33.5823 56.0091L27.8352 48.3799L19.5102 36.2878L19.4735 48.3799H18.6667V35.2984Z" fill="black"/>
<path d="M60.0545 47.4736C60.2213 47.4736 60.343 47.3465 60.343 47.1823C60.343 47.018 60.2213 46.8909 60.0545 46.8909C59.8897 46.8909 59.766 47.018 59.766 47.1823C59.766 47.3465 59.8897 47.4736 60.0545 47.4736ZM60.8473 46.7071C60.8473 47.192 61.1986 47.5088 61.7108 47.5088C62.2563 47.5088 62.586 47.1823 62.586 46.6152V44.6186H62.1464V46.6132C62.1464 46.9281 61.9875 47.0962 61.7068 47.0962C61.4557 47.0962 61.2849 46.9398 61.279 46.7071H60.8473ZM63.161 46.6817C63.1924 47.1862 63.6143 47.5088 64.2423 47.5088C64.9134 47.5088 65.3333 47.1705 65.3333 46.6308C65.3333 46.2065 65.0939 45.9718 64.5131 45.8369L64.201 45.7606C63.8321 45.6746 63.683 45.5592 63.683 45.3578C63.683 45.1036 63.9145 44.9373 64.2619 44.9373C64.5916 44.9373 64.8192 45.0997 64.8604 45.3597H65.2882C65.2627 44.8845 64.8427 44.5502 64.2678 44.5502C63.6496 44.5502 63.2375 44.8845 63.2375 45.3871C63.2375 45.8017 63.471 46.0481 63.9832 46.1674L64.3482 46.2554C64.723 46.3434 64.8879 46.4724 64.8879 46.6875C64.8879 46.9378 64.6288 47.1197 64.2756 47.1197C63.8969 47.1197 63.6339 46.9496 63.5966 46.6817H63.161Z" fill="black"/>
</svg>
