<svg width="84" height="84" viewBox="0 0 84 84" fill="none" xmlns="http://www.w3.org/2000/svg">
<path d="M42 46.1143C44.2722 46.1143 46.1143 44.2723 46.1143 42C46.1143 39.7278 44.2722 37.8858 42 37.8858C39.7278 37.8858 37.8858 39.7278 37.8858 42C37.8858 44.2723 39.7278 46.1143 42 46.1143Z" fill="#61DAFB"/>
<path fill-rule="evenodd" clip-rule="evenodd" d="M22.6549 39.8352C21.7219 40.6774 21.4152 41.4118 21.4152 42C21.4152 42.5882 21.7219 43.3226 22.6549 44.1648C23.5873 45.0065 25.0206 45.8332 26.9191 46.558C30.7056 48.0038 36.0371 48.9292 42 48.9292C47.9629 48.9292 53.2944 48.0038 57.0809 46.558C58.9794 45.8332 60.4127 45.0065 61.3451 44.1648C62.2781 43.3226 62.5848 42.5882 62.5848 42C62.5848 41.4118 62.2781 40.6774 61.3451 39.8352C60.4127 38.9935 58.9794 38.1669 57.0809 37.442C53.2944 35.9963 47.9629 35.0708 42 35.0708C36.0371 35.0708 30.7056 35.9963 26.9191 37.442C25.0206 38.1669 23.5873 38.9935 22.6549 39.8352ZM25.8601 34.6374C30.0637 33.0323 35.7704 32.0708 42 32.0708C48.2296 32.0708 53.9363 33.0323 58.1399 34.6374C60.2365 35.4379 62.0361 36.4275 63.338 37.6028C64.6393 38.7774 65.5681 40.2606 65.5681 42C65.5681 43.7394 64.6393 45.2226 63.338 46.3972C62.0361 47.5725 60.2365 48.5622 58.1399 49.3627C53.9363 50.9677 48.2296 51.9292 42 51.9292C35.7704 51.9292 30.0637 50.9677 25.8601 49.3627C23.7636 48.5622 21.9639 47.5725 20.662 46.3972C19.3607 45.2226 18.4319 43.7394 18.4319 42C18.4319 40.2606 19.3607 38.7774 20.662 37.6028C21.9639 36.4275 23.7636 35.4379 25.8601 34.6374Z" fill="#61DAFB"/>
<path fill-rule="evenodd" clip-rule="evenodd" d="M34.2142 24.1675C33.0198 23.7811 32.2265 23.8807 31.7107 24.1785C31.195 24.4762 30.712 25.1135 30.4494 26.3411C30.1868 27.5687 30.1876 29.2222 30.5089 31.2275C31.1497 35.2273 33.0131 40.3052 35.9937 45.4677C38.9743 50.6302 42.4401 54.7829 45.5837 57.3378C47.1596 58.6187 48.5912 59.4461 49.7857 59.8325C50.9801 60.2189 51.7735 60.1193 52.2892 59.8215C52.805 59.5237 53.288 58.8865 53.5505 57.6589C53.8131 56.4313 53.8123 54.7778 53.4911 52.7725C52.8502 48.7726 50.9868 43.6948 48.0062 38.5323C45.0257 33.3698 41.5598 29.2171 38.4163 26.6622C36.8403 25.3813 35.4087 24.5539 34.2142 24.1675ZM40.2969 24.3395C43.7904 27.1789 47.4778 31.642 50.5935 37.0385C53.7091 42.435 55.7307 47.86 56.4428 52.3052C56.7981 54.5224 56.8408 56.5769 56.4738 58.2927C56.1068 60.0085 55.2872 61.5499 53.7871 62.416C52.2871 63.282 50.5423 63.2211 48.8729 62.6811C47.2035 62.141 45.4456 61.0767 43.7031 59.6605C40.2095 56.8211 36.5221 52.358 33.4065 46.9615C30.2908 41.5649 28.2693 36.14 27.5571 31.6948C27.2019 29.4776 27.1591 27.4231 27.5261 25.7073C27.8931 23.9915 28.7128 22.4501 30.2128 21.584C31.7129 20.718 33.4576 20.7788 35.127 21.3189C36.7964 21.859 38.5543 22.9233 40.2969 24.3395Z" fill="#61DAFB"/>
<path fill-rule="evenodd" clip-rule="evenodd" d="M53.5505 26.3411C53.288 25.1135 52.805 24.4762 52.2892 24.1785C51.7735 23.8807 50.9801 23.7811 49.7857 24.1675C48.5913 24.5539 47.1597 25.3813 45.5837 26.6622C42.4401 29.2171 38.9743 33.3698 35.9937 38.5323C33.0132 43.6948 31.1497 48.7726 30.5089 52.7725C30.1876 54.7777 30.1868 56.4312 30.4494 57.6589C30.712 58.8865 31.195 59.5237 31.7107 59.8215C32.2265 60.1193 33.0199 60.2189 34.2143 59.8325C35.4087 59.4461 36.8403 58.6187 38.4163 57.3378C41.5598 54.7829 45.0257 50.6302 48.0063 45.4677C50.9868 40.3052 52.8503 35.2273 53.4911 31.2275C53.8124 29.2222 53.8131 27.5687 53.5505 26.3411ZM56.4429 31.6948C55.7307 36.14 53.7092 41.5649 50.5935 46.9614C47.4778 52.358 43.7904 56.8211 40.2969 59.6605C38.5543 61.0767 36.7964 62.141 35.1271 62.6811C33.4576 63.2211 31.7129 63.282 30.2128 62.416C28.7128 61.5499 27.8931 60.0085 27.5261 58.2927C27.1591 56.5769 27.2019 54.5224 27.5571 52.3052C28.2693 47.86 30.2908 42.435 33.4065 37.0385C36.5222 31.642 40.2095 27.1789 43.7031 24.3395C45.4456 22.9233 47.2036 21.859 48.8729 21.3189C50.5423 20.7788 52.2871 20.718 53.7871 21.584C55.2872 22.4501 56.1069 23.9915 56.4739 25.7073C56.8408 27.4231 56.7981 29.4776 56.4429 31.6948Z" fill="#61DAFB"/>
</svg>
