<svg width="84" height="84" viewBox="0 0 84 84" fill="none" xmlns="http://www.w3.org/2000/svg">
<path d="M42 28.0038C35.7776 28.0038 31.8888 31.1141 30.333 37.3342C32.6667 34.2239 35.3889 33.058 38.4999 33.8352C40.275 34.2787 41.5437 35.5666 42.9483 36.9917C45.2358 39.313 47.8834 41.9997 53.667 41.9997C59.8888 41.9997 63.7782 38.8894 65.3333 32.6687C63.0003 35.7791 60.278 36.9456 57.1665 36.1683C55.3919 35.7248 54.1233 34.4369 52.7187 33.0119C50.4312 30.6905 47.783 28.0038 42 28.0038ZM30.333 41.9997C24.1112 41.9997 20.2218 45.11 18.6667 51.3307C20.9997 48.2204 23.722 47.0538 26.8335 47.8317C28.6081 48.2758 29.8767 49.5631 31.2813 50.9876C33.5688 53.3089 36.217 55.9962 42 55.9962C48.2224 55.9962 52.1112 52.8859 53.667 46.6652C51.3333 49.7755 48.6111 50.942 45.5002 50.1642C43.725 49.7213 42.4563 48.4328 41.0517 47.0083C38.7642 44.687 36.1166 41.9997 30.333 41.9997Z" fill="#06B6D4"/>
</svg>
